<svg viewBox="0 0 150 54" xmlns="http://www.w3.org/2000/svg" role="img" aria-label="HoxPi"><polyline points="44,22 70,7 96,22" fill="none" stroke="#41bdf5" stroke-width="3" stroke-linecap="round" stroke-linejoin="round"/><text text-anchor="end" x="95" y="44" font-size="21" font-weight="700" font-family="system-ui,-apple-system,Segoe UI,Roboto,sans-serif"><tspan fill="#e2001a">H</tspan><tspan fill="#1c2531">o</tspan><tspan fill="#69b41e">x</tspan><tspan fill="#c2185b">P</tspan></text><rect x="97.2" y="33" width="2.5" height="10.5" rx="1.25" fill="#c2185b"/><path d="M98.7,25 C98.2,22 99.4,19.5 101.6,18.6 C100.2,20.6 99.8,22.8 98.7,25 z" fill="#4ea51f"/><line x1="98.8" y1="24.6" x2="101.4" y2="18.9" stroke="#2f6e12" stroke-width="0.4"/><circle cx="98.45" cy="25.7" r="1.2" fill="#e8463f"/><circle cx="100.45" cy="26.85" r="1.2" fill="#d8201c"/><circle cx="96.45" cy="26.85" r="1.2" fill="#d8201c"/><circle cx="98.45" cy="28.0" r="1.2" fill="#d8201c"/><circle cx="100.45" cy="29.15" r="1.2" fill="#b81818"/><circle cx="96.45" cy="29.15" r="1.2" fill="#b81818"/><circle cx="98.45" cy="30.3" r="1.1" fill="#a01414"/><circle cx="98.0" cy="25.4" r="0.4" fill="#ffd9d4"/><circle cx="98.0" cy="27.6" r="0.4" fill="#ffd9d4"/><rect x="44" y="48" width="18" height="3.5" rx="1.75" fill="#e2001a"/><rect x="64" y="48" width="18" height="3.5" rx="1.75" fill="#c2185b"/><rect x="84" y="48" width="18" height="3.5" rx="1.75" fill="#69b41e"/></svg>
